<mxfile host="www.draw.io" modified="2019-11-22T03:16:03.699Z" agent="Mozilla/5.0 (Macintosh; Intel Mac OS X 10_14_4) AppleWebKit/537.36 (KHTML, like Gecko) Chrome/78.0.3904.108 Safari/537.36" etag="3nmULD4DSNHIT7hbWxuQ" version="12.2.9" type="github" pages="1">
  <diagram id="m3J9kFqykPF54zMLwvkE" name="Page-1">
    <mxGraphModel dx="932" dy="600" grid="1" gridSize="10" guides="1" tooltips="1" connect="1" arrows="1" fold="1" page="1" pageScale="1" pageWidth="827" pageHeight="1169" math="0" shadow="0">
      <root>
        <mxCell id="0"/>
        <mxCell id="1" parent="0"/>
        <mxCell id="-C9dd63Dn9SHJSaXkGCF-1" value="http" style="ellipse;whiteSpace=wrap;html=1;" parent="1" vertex="1">
          <mxGeometry x="10" y="310" width="120" height="80" as="geometry"/>
        </mxCell>
        <mxCell id="-C9dd63Dn9SHJSaXkGCF-2" value="" style="curved=1;endArrow=classic;html=1;" parent="1" edge="1">
          <mxGeometry width="50" height="50" relative="1" as="geometry">
            <mxPoint x="130" y="335" as="sourcePoint"/>
            <mxPoint x="340" y="210" as="targetPoint"/>
            <Array as="points">
              <mxPoint x="180" y="335"/>
              <mxPoint x="130" y="285"/>
            </Array>
          </mxGeometry>
        </mxCell>
      </root>
    </mxGraphModel>
  </diagram>
</mxfile>
